<?xml version="1.0" standalone="no"?>
<!DOCTYPE svg PUBLIC "-//W3C//DTD SVG 20010904//EN"
 "http://www.w3.org/TR/2001/REC-SVG-20010904/DTD/svg10.dtd">
<svg version="1.0" xmlns="http://www.w3.org/2000/svg"
 width="256.000000pt" height="256.000000pt" viewBox="0 0 256.000000 256.000000"
 preserveAspectRatio="xMidYMid meet">
<metadata>
Created by potrace 1.16, written by Peter Selinger 2001-2019
</metadata>
<g transform="translate(0.000000,256.000000) scale(0.100000,-0.100000)"
fill="#000000" stroke="none">
<path d="M1053 2506 c-510 -97 -910 -499 -998 -1005 -19 -108 -19 -334 0 -442
41 -236 160 -470 327 -645 174 -182 408 -307 673 -360 110 -23 334 -23 447 -1
526 103 915 495 1004 1012 25 138 15 399 -19 525 -122 450 -446 775 -897 897
-83 22 -119 26 -280 29 -128 2 -207 -1 -257 -10z m407 -51 c239 -39 474 -153
644 -315 122 -115 242 -308 300 -483 120 -362 54 -763 -177 -1069 -105 -140
-262 -259 -358 -272 -19 -2 -68 -20 -110 -40 -42 -19 -121 -48 -175 -63 -92
-25 -113 -27 -294 -27 -179 0 -203 2 -293 27 -53 14 -136 43 -183 63 -47 20
-99 38 -116 39 -16 2 -62 19 -103 39 -169 83 -342 304 -430 546 -56 155 -82
384 -60 535 46 321 210 608 453 790 259 194 594 279 902 230z"/>
<path d="M1093 2346 c-411 -78 -738 -378 -849 -777 -35 -127 -44 -352 -20
-482 72 -381 335 -688 703 -820 125 -45 231 -60 393 -55 162 6 253 25 388 82
171 72 362 227 462 375 62 93 127 237 157 348 24 88 27 116 27 268 0 152 -3
180 -27 267 -102 382 -395 676 -772 774 -123 32 -345 42 -462 20z m329 -371
c223 -47 382 -217 425 -452 14 -76 15 -111 5 -273 -7 -102 -23 -275 -37 -385
-14 -110 -25 -203 -25 -208 0 -4 -10 -5 -22 -3 -13 3 -99 15 -191 27 -107 14
-174 27 -183 36 -9 10 -14 37 -14 84 l0 69 -69 0 c-37 0 -89 -3 -115 -6 l-46
-7 0 -73 c0 -44 -4 -74 -10 -74 -6 0 -97 -11 -202 -25 -105 -14 -194 -23 -196
-20 -13 12 -53 428 -59 600 -7 231 3 301 58 416 71 148 214 258 379 293 85 19
218 19 302 1z"/>
<path d="M1214 1541 c-31 -13 -72 -67 -84 -109 -11 -42 -13 -178 -4 -270 7
-61 8 -62 43 -72 20 -5 73 -10 119 -10 124 0 125 2 120 193 -4 167 -18 215
-74 252 -32 20 -90 28 -120 16z"/>
</g>
</svg>
