<?xml version="1.0" standalone="no"?>
<!DOCTYPE svg PUBLIC "-//W3C//DTD SVG 20010904//EN"
 "http://www.w3.org/TR/2001/REC-SVG-20010904/DTD/svg10.dtd">
<svg version="1.0" xmlns="http://www.w3.org/2000/svg"
 width="256.000000pt" height="256.000000pt" viewBox="0 0 256.000000 256.000000"
 preserveAspectRatio="xMidYMid meet">

<g transform="translate(0.000000,256.000000) scale(0.100000,-0.100000)"
fill="#000000" stroke="none">
<path d="M1095 2504 c-539 -82 -960 -506 -1039 -1045 -20 -134 -20 -224 0
-358 79 -542 503 -966 1045 -1045 134 -20 224 -20 358 0 542 79 966 503 1045
1045 20 134 20 224 0 358 -51 350 -248 660 -544 855 -252 166 -568 236 -865
190z m463 -69 c406 -104 689 -358 837 -751 149 -395 49 -878 -244 -1187 -87
-91 -219 -182 -261 -180 -3 1 -13 -5 -24 -12 -10 -8 -24 -11 -32 -8 -7 3 -51
-11 -96 -31 -136 -58 -232 -77 -413 -83 -138 -4 -174 -2 -265 17 -57 12 -145
37 -195 56 -49 20 -104 37 -121 38 -162 14 -388 214 -511 451 -182 353 -181
739 3 1096 168 326 478 547 858 614 125 22 335 13 464 -20z"/>
<path d="M1093 2346 c-222 -42 -414 -145 -573 -305 -135 -136 -226 -291 -276
-473 -35 -126 -44 -351 -20 -481 41 -216 134 -394 289 -554 165 -170 379 -281
605 -314 118 -17 326 -7 429 20 384 100 676 391 780 778 24 88 27 116 27 268
0 152 -3 180 -27 267 -102 382 -396 676 -772 774 -124 32 -347 42 -462 20z
m329 -371 c223 -47 382 -216 425 -452 14 -76 15 -111 5 -273 -10 -152 -57
-589 -65 -596 -5 -5 -365 47 -384 56 -21 9 -23 16 -23 85 l0 75 -69 0 c-37 0
-89 -3 -115 -6 l-46 -7 0 -73 c0 -44 -4 -74 -10 -74 -6 0 -97 -11 -202 -25
-105 -14 -194 -23 -196 -20 -14 13 -53 426 -58 610 -7 238 1 297 59 414 40 83
140 184 224 229 127 67 304 89 455 57z"/>
<path d="M1214 1541 c-31 -13 -72 -67 -84 -109 -11 -42 -13 -178 -4 -269 6
-59 7 -61 44 -72 21 -6 74 -11 119 -11 122 0 124 2 119 193 -4 167 -18 215
-74 252 -32 20 -90 28 -120 16z"/>
</g>
</svg>
